# xmcd
#
# Track frame offsets: 
#        150
#        10348
#        22515
#        39805
#        50995
#        57634
#        70584
#        82438
#        89728
#        98148
#        116496
#        134192
#        147383
#        154843
#        161125
#        170161
#        178444
#        194989
#        204699
#        216946
#
# Disc length: 3056 seconds
#
# Revision: 20
# Processed by: cddbd v1.5.2PL0 Copyright (c) Steve Scherf et al.
# Submitted via: ExactAudioCopy v1.1
#
DISCID=420bee14
DTITLE=Koerner, Ray and Glover - Blues, Rags and Hollers
DYEAR=1963
DGENRE=Blues
TTITLE0=Linin' Track (stereo)
TTITLE1=Ramblin' Blues (stereo)
TTITLE2=It's All Right (stereo)
TTITLE3=Hangman (stereo)
TTITLE4=Ted Mack Rag (stereo)
TTITLE5=Down To Louisiana (stereo)
TTITLE6=Creepy John (stereo)
TTITLE7=Bugger Burns (stereo)
TTITLE8=Sun's Wail (stereo)
TTITLE9=Dust My Broom (stereo)
TTITLE10=One Kind Favor (stereo)
TTITLE11=Go Down Ol' Hannah (stereo)
TTITLE12=Good Time Charlie (stereo)
TTITLE13=Banjo Thing (stereo)
TTITLE14=Stop That Thing (stereo)
TTITLE15=Too Bad (stereo)
TTITLE16=Snaker's Here (stereo)
TTITLE17=Low Down Rounder (stereo)
TTITLE18=Jimmy Bell (stereo)
TTITLE19=Mumblin' Word (stereo)
EXTD=
EXTT0=
EXTT1=
EXTT2=
EXTT3=
EXTT4=
EXTT5=
EXTT6=
EXTT7=
EXTT8=
EXTT9=
EXTT10=
EXTT11=
EXTT12=
EXTT13=
EXTT14=
EXTT15=
EXTT16=
EXTT17=
EXTT18=
EXTT19=
PLAYORDER=
